C:\Users\antoi\Documents\MyRepositories\predsim_tutorial\Results\Case_0\GRF.mot
version=1
nRows=17
nColumns=19
inDegrees=yes
endheader 
time	r_ground_force_vx	r_ground_force_vy	r_ground_force_vz	r_ground_force_px	r_ground_force_py	r_ground_force_pz	l_ground_force_vx	l_ground_force_vy	l_ground_force_vz	l_ground_force_px	l_ground_force_py	l_ground_force_pz	r_ground_torque_x	r_ground_torque_y	r_ground_torque_z	l_ground_torque_x	l_ground_torque_y	l_ground_torque_z	
          0.00000000	       -130.10438660	        107.25890570	         13.17484399	          0.17550598	          0.00000000	          0.04231230	         85.36732995	        426.23571287	          5.61063960	         -0.31607490	          0.00000000	         -0.06479082	          0.00000000	         -0.00006957	          0.00000000	          0.00000000	         -3.24189092	          0.00000000	
          0.02156791	        -46.12223151	        416.34418000	         -5.64655561	          0.18629349	          0.00000000	          0.04130568	         64.57679051	        322.17092445	         -1.72672457	         -0.30339655	          0.00000000	         -0.06835412	          0.00000000	         -0.08478898	          0.00000000	          0.00000000	         -2.20332902	          0.00000000	
          0.04313583	        -85.25845264	        668.14366057	        -12.65760187	          0.19725394	          0.00000000	          0.04531793	         45.93466332	        239.15553108	        -11.70916556	         -0.30046405	          0.00000000	         -0.06534891	          0.00000000	         -1.00165064	          0.00000000	          0.00000000	         -1.51167982	          0.00000000	
          0.06470374	        -95.74339929	        735.50153811	        -14.53245842	          0.20821419	          0.00000000	          0.04846559	         23.13583704	        143.75559835	        -22.62929745	         -0.29639937	          0.00000000	         -0.06005134	          0.00000000	         -0.85708702	          0.00000000	          0.00000000	         -0.66132192	          0.00000000	
          0.08627165	        -88.94670307	        741.58223992	        -13.90592752	          0.22060916	          0.00000000	          0.04840938	         -8.78995348	         42.68745342	        -10.55423703	         -0.28837101	          0.00000000	         -0.04235223	          0.00000000	         -1.88120567	          0.00000000	          0.00000000	         -0.08706255	          0.00000000	
          0.10783957	        -73.23976167	        712.79568426	        -11.86205524	          0.23149814	          0.00000000	          0.04750491	          0.00000000	          0.00000000	          0.00000000	          0.00000000	          0.00000000	          0.00000000	          0.00000000	         -3.33461488	          0.00000000	          0.00000000	          0.00000000	          0.00000000	
          0.12940748	        -52.46580457	        655.98216369	        -11.70986267	          0.23994978	          0.00000000	          0.04697709	          0.00000000	          0.00000000	          0.00000000	          0.00000000	          0.00000000	          0.00000000	          0.00000000	         -4.77937499	          0.00000000	          0.00000000	          0.00000000	          0.00000000	
          0.15097540	        -35.84584820	        603.02707360	        -13.32624091	          0.24955979	          0.00000000	          0.04663392	          0.00000000	          0.00000000	          0.00000000	          0.00000000	          0.00000000	          0.00000000	          0.00000000	         -5.79630543	          0.00000000	          0.00000000	          0.00000000	          0.00000000	
          0.17254331	        -24.85633913	        568.17110365	        -14.92995752	          0.26150254	          0.00000000	          0.04620272	          0.00000000	          0.00000000	          0.00000000	          0.00000000	          0.00000000	          0.00000000	          0.00000000	         -6.20958180	          0.00000000	          0.00000000	          0.00000000	          0.00000000	
          0.19411122	        -18.95426114	        548.67231918	        -16.42724139	          0.27454205	          0.00000000	          0.04581635	          0.00000000	          0.00000000	          0.00000000	          0.00000000	          0.00000000	          0.00000000	          0.00000000	         -6.20143437	          0.00000000	          0.00000000	          0.00000000	          0.00000000	
          0.21567914	        -15.65880507	        539.65236680	        -17.70505365	          0.28721412	          0.00000000	          0.04599942	          0.00000000	          0.00000000	          0.00000000	          0.00000000	          0.00000000	          0.00000000	          0.00000000	         -5.66978503	          0.00000000	          0.00000000	          0.00000000	          0.00000000	
          0.23724705	        -12.68810123	        534.02650590	        -18.32435127	          0.29880565	          0.00000000	          0.04676469	          0.00000000	          0.00000000	          0.00000000	          0.00000000	          0.00000000	          0.00000000	          0.00000000	         -4.51849458	          0.00000000	          0.00000000	          0.00000000	          0.00000000	
          0.25881496	         -8.38616126	        527.74122522	        -18.52745291	          0.30930508	          0.00000000	          0.04779096	          0.00000000	          0.00000000	          0.00000000	          0.00000000	          0.00000000	          0.00000000	          0.00000000	         -2.99997085	          0.00000000	          0.00000000	          0.00000000	          0.00000000	
          0.28038288	         -3.45072976	        518.96886051	        -17.65803413	          0.31897560	          0.00000000	          0.04891493	          0.00000000	          0.00000000	          0.00000000	          0.00000000	          0.00000000	          0.00000000	          0.00000000	         -1.55075666	          0.00000000	          0.00000000	          0.00000000	          0.00000000	
          0.30195079	          2.16937106	        509.81319023	        -16.49691766	          0.32831190	          0.00000000	          0.05006322	          0.00000000	          0.00000000	          0.00000000	          0.00000000	          0.00000000	          0.00000000	          0.00000000	         -0.38876552	          0.00000000	          0.00000000	          0.00000000	          0.00000000	
          0.32351870	          8.58439062	        504.15169796	        -15.80881807	          0.33739943	          0.00000000	          0.05122056	          0.00000000	          0.00000000	          0.00000000	          0.00000000	          0.00000000	          0.00000000	          0.00000000	          0.45475097	          0.00000000	          0.00000000	          0.00000000	          0.00000000	
          0.34508662	         16.92129126	        505.54889219	        -16.37819629	          0.34583857	          0.00000000	          0.05240329	          0.00000000	          0.00000000	          0.00000000	          0.00000000	          0.00000000	          0.00000000	          0.00000000	          1.02002900	          0.00000000	          0.00000000	          0.00000000	          0.00000000	
